<?xml version="1.0" encoding="utf-8"?>
<!-- Generator: Adobe Illustrator 26.0.0, SVG Export Plug-In . SVG Version: 6.00 Build 0)  -->
<svg version="1.1" id="Layer_1" xmlns="http://www.w3.org/2000/svg" xmlns:xlink="http://www.w3.org/1999/xlink" x="0px" y="0px"
	 viewBox="0 0 934 1080" style="enable-background:new 0 0 934 1080;" xml:space="preserve">
<style type="text/css">
	.st0{fill:url(#SVGID_1_);}
	.st1{fill:url(#SVGID_00000136383917584204209610000016576610800515086242_);}
	.st2{fill:url(#SVGID_00000163046736839761289410000017387010521757821084_);}
	.st3{fill:url(#SVGID_00000122709375175115552680000001123711691388003006_);}
</style>
<g>
	<linearGradient id="SVGID_1_" gradientUnits="userSpaceOnUse" x1="504.6031" y1="180.2833" x2="301.1422" y2="180.2833">
		<stop  offset="0" style="stop-color:#0792FF"/>
		<stop  offset="0.0645" style="stop-color:#2D7AFE"/>
		<stop  offset="0.1401" style="stop-color:#5262FD"/>
		<stop  offset="0.2157" style="stop-color:#6F50FC"/>
		<stop  offset="0.2903" style="stop-color:#8443FB"/>
		<stop  offset="0.3635" style="stop-color:#913BFB"/>
		<stop  offset="0.4338" style="stop-color:#9538FB"/>
		<stop  offset="0.4743" style="stop-color:#9F3CED"/>
		<stop  offset="0.6522" style="stop-color:#C84EB6"/>
		<stop  offset="0.8054" style="stop-color:#E65B8E"/>
		<stop  offset="0.9263" style="stop-color:#F86375"/>
		<stop  offset="1" style="stop-color:#FF666C"/>
	</linearGradient>
	<polygon class="st0" points="513.15,53.51 292.42,178.29 510.85,307.06 	"/>
	
		<linearGradient id="SVGID_00000111160278881843629760000014362264628002186663_" gradientUnits="userSpaceOnUse" x1="75.6006" y1="575.4047" x2="284.9286" y2="575.4047">
		<stop  offset="0" style="stop-color:#0792FF"/>
		<stop  offset="0.0779" style="stop-color:#0F8DFF"/>
		<stop  offset="0.1986" style="stop-color:#257FFE"/>
		<stop  offset="0.3472" style="stop-color:#4968FD"/>
		<stop  offset="0.5162" style="stop-color:#7A49FC"/>
		<stop  offset="0.6008" style="stop-color:#9538FB"/>
		<stop  offset="0.6544" style="stop-color:#9D3BF0"/>
		<stop  offset="0.7481" style="stop-color:#B245D3"/>
		<stop  offset="0.8706" style="stop-color:#D554A5"/>
		<stop  offset="1" style="stop-color:#FF666C"/>
	</linearGradient>
	<polygon style="fill:url(#SVGID_00000111160278881843629760000014362264628002186663_);" points="284.93,455.18 75.6,573.51 
		282.74,695.63 	"/>
	
		<linearGradient id="SVGID_00000172437398594190030660000004409062339136365754_" gradientUnits="userSpaceOnUse" x1="516.0831" y1="706.2862" x2="725.4111" y2="706.2862">
		<stop  offset="0" style="stop-color:#0792FF"/>
		<stop  offset="0.2342" style="stop-color:#5B5CFD"/>
		<stop  offset="0.4053" style="stop-color:#9538FB"/>
		<stop  offset="0.7128" style="stop-color:#CD50AF"/>
		<stop  offset="1" style="stop-color:#FF666C"/>
	</linearGradient>
	<polygon style="fill:url(#SVGID_00000172437398594190030660000004409062339136365754_);" points="725.41,708.18 516.08,826.51 
		518.27,586.06 	"/>
	
		<linearGradient id="SVGID_00000176753653347114462360000010967949424438929586_" gradientUnits="userSpaceOnUse" x1="6.9173" y1="540" x2="927.0827" y2="540">
		<stop  offset="0" style="stop-color:#0792FF"/>
		<stop  offset="0.5" style="stop-color:#9538FB"/>
		<stop  offset="1" style="stop-color:#FF666C"/>
	</linearGradient>
	<path style="fill:url(#SVGID_00000176753653347114462360000010967949424438929586_);" d="M697.5,414.96L927.08,281.1L688.06,140.7
		v262.73L478.07,280.38L480.48,7L239.71,146.22v258L6.92,539.08l232.79,135.21v263.16L465.43,805.6l-2.41,267.4l234.24-143.89
		L474.99,800.02l216.52-126.47l230.95,134.9V527.71L697.5,659.12V414.96z M697.5,157.19l210.9,123.88L697.5,404.03V157.19z
		 M239.71,663.37L25.73,539.09l213.98-123.96V663.37z M913.02,544.16V792L700.86,668.08L913.02,544.16z M468.68,274.87
		L253.81,148.97L470.89,23.45L468.68,274.87z M249.15,157.18l214.89,125.92L249.15,399.03V157.18z M249.15,921V679.76l207.09,120.28
		L249.15,921z M465.53,794.52L249.15,668.85V415.16L467.8,542.88L465.53,794.52z M678.86,929.34l-206.24,126.69l2.21-245.2
		L678.86,929.34z M472.95,534.95L254.07,407.1l219.5-118.42l210.36,123.27L472.95,534.95z M475.02,789.07l2.17-240.71l204.96,119.72
		L475.02,789.07z M688.06,660.6L482.31,540.42l205.75-119.96V660.6z"/>
</g>
</svg>
