<?xml version="1.0" encoding="utf-8"?>
<!-- Generator: Adobe Illustrator 26.0.0, SVG Export Plug-In . SVG Version: 6.00 Build 0)  -->
<svg version="1.1" id="Layer_1" xmlns="http://www.w3.org/2000/svg" xmlns:xlink="http://www.w3.org/1999/xlink" x="0px" y="0px"
	 viewBox="0 0 934 1080" style="enable-background:new 0 0 934 1080;" xml:space="preserve">
<style type="text/css">
	.st0{fill:url(#SVGID_1_);}
	.st1{fill:url(#SVGID_00000037681069479882124930000010142200423207371683_);}
	.st2{fill:url(#SVGID_00000103963306034842524750000004612214104840255880_);}
	.st3{fill:url(#SVGID_00000124857576165889214890000015831321437166276524_);}
</style>
<g>
	
		<linearGradient id="SVGID_1_" gradientUnits="userSpaceOnUse" x1="504.6031" y1="899.715" x2="301.1422" y2="899.715" gradientTransform="matrix(-1 0 0 -1 934 1080)">
		<stop  offset="0" style="stop-color:#0792FF"/>
		<stop  offset="6.450000e-02" style="stop-color:#2D7AFE"/>
		<stop  offset="0.1401" style="stop-color:#5262FD"/>
		<stop  offset="0.2157" style="stop-color:#6F50FC"/>
		<stop  offset="0.2903" style="stop-color:#8443FB"/>
		<stop  offset="0.3635" style="stop-color:#913BFB"/>
		<stop  offset="0.4338" style="stop-color:#9538FB"/>
		<stop  offset="0.4743" style="stop-color:#9F3CED"/>
		<stop  offset="0.6522" style="stop-color:#C84EB6"/>
		<stop  offset="0.8054" style="stop-color:#E65B8E"/>
		<stop  offset="0.9263" style="stop-color:#F86375"/>
		<stop  offset="1" style="stop-color:#FF666C"/>
	</linearGradient>
	<polygon class="st0" points="423.2,307.1 641.6,178.3 420.9,53.5 	"/>
	
		<linearGradient id="SVGID_00000141432694658506773210000005731695791487077819_" gradientUnits="userSpaceOnUse" x1="75.6" y1="504.595" x2="284.93" y2="504.595" gradientTransform="matrix(-1 0 0 -1 934 1080)">
		<stop  offset="0" style="stop-color:#0792FF"/>
		<stop  offset="7.790000e-02" style="stop-color:#0F8DFF"/>
		<stop  offset="0.1986" style="stop-color:#257FFE"/>
		<stop  offset="0.3472" style="stop-color:#4968FD"/>
		<stop  offset="0.5162" style="stop-color:#7A49FC"/>
		<stop  offset="0.6008" style="stop-color:#9538FB"/>
		<stop  offset="0.6544" style="stop-color:#9D3BF0"/>
		<stop  offset="0.7481" style="stop-color:#B245D3"/>
		<stop  offset="0.8706" style="stop-color:#D554A5"/>
		<stop  offset="1" style="stop-color:#FF666C"/>
	</linearGradient>
	<polygon style="fill:url(#SVGID_00000141432694658506773210000005731695791487077819_);" points="651.3,695.6 858.4,573.5 
		649.1,455.2 	"/>
	
		<linearGradient id="SVGID_00000062186335505493235910000003468189202828247680_" gradientUnits="userSpaceOnUse" x1="516.08" y1="373.715" x2="725.41" y2="373.715" gradientTransform="matrix(-1 0 0 -1 934 1080)">
		<stop  offset="0" style="stop-color:#0792FF"/>
		<stop  offset="0.2342" style="stop-color:#5B5CFD"/>
		<stop  offset="0.4053" style="stop-color:#9538FB"/>
		<stop  offset="0.7128" style="stop-color:#CD50AF"/>
		<stop  offset="1" style="stop-color:#FF666C"/>
	</linearGradient>
	<polygon style="fill:url(#SVGID_00000062186335505493235910000003468189202828247680_);" points="415.7,586.1 417.9,826.5 
		208.6,708.2 	"/>
	
		<linearGradient id="SVGID_00000142868721173761733670000012487349081737032370_" gradientUnits="userSpaceOnUse" x1="6.92" y1="540" x2="927.08" y2="540" gradientTransform="matrix(-1 0 0 -1 934 1080)">
		<stop  offset="0" style="stop-color:#0792FF"/>
		<stop  offset="0.5" style="stop-color:#9538FB"/>
		<stop  offset="1" style="stop-color:#FF666C"/>
	</linearGradient>
	<path style="fill:url(#SVGID_00000142868721173761733670000012487349081737032370_);" d="M236.5,659.1l-225-131.4v280.7l231-134.9
		L459,800L236.7,929.1L471,1073l-2.4-267.4l225.7,131.9V674.3l232.8-135.2L694.3,404.2v-258L453.5,7l2.4,273.4l-210,123V140.7
		L6.9,281.1L236.5,415V659.1z M236.5,404l-210.9-123l210.9-123.9V404z M694.3,663.4V415.1l214,124L694.3,663.4L694.3,663.4z
		 M233.1,668.1L21,792V544.2L233.1,668.1z M463.1,23.5L680.2,149L465.3,274.9L463.1,23.5z M684.9,399L470,283.1l214.9-125.9V399z
		 M477.8,800l207.1-120.3V921L477.8,800z M466.2,542.9l218.6-127.7v253.7L468.5,794.5L466.2,542.9z M459.2,810.8l2.2,245.2
		L255.1,929.3L459.2,810.8z M250.1,411.9l210.4-123.3l219.5,118.4L461.1,535L250.1,411.9z M251.8,668.1l205-119.7l2.2,240.7
		L251.8,668.1z M245.9,420.5l205.8,120L245.9,660.6V420.5z"/>
</g>
</svg>
